<svg width="1440" height="1020" fill="none" xmlns="http://www.w3.org/2000/svg"><path opacity=".2" d="M-17.453 846.596C56.71 1087.68 279.63 1001.74 284.098 802.874 295.297 304.349 92.652 656.018-45.817 282.785c-70.357-189.642 120.431-470.263 207.081-98.928C193.466 321.86 411.374 818.403 430 883.002c78.046 270.688 461.081 404.248 372.949-246.268-2.108-15.558-8.319-30.818-16.807-44.027-140.363-218.449-139.794-564.37 131.359-439.708C1197 281.498 951.841 740.698 1054 915.997c116.45 199.813 158.57-322.551 166.88-448.442 1.16-17.569 6.49-34.404 17.59-48.071 39.82-49.024 141.61-144.477 160.03 133.016 10.13 152.504-26.5 327.497 41.5 314.997" stroke="#4A4A4A" stroke-width="3" stroke-linecap="round" stroke-dasharray="10 10"/></svg>