<svg width="34" height="27" fill="none" xmlns="http://www.w3.org/2000/svg"><path fill-rule="evenodd" clip-rule="evenodd" d="M33.706 2.539c-.082 1.1-.766 4.946-1.44 9.097l-2.124 12.322s-.166 1.808-1.616 2.114c-1.44.316-3.824-1.1-4.248-1.416-.342-.239-6.373-3.769-8.58-5.49-.59-.47-1.274-1.417.083-2.507 3.057-2.593 6.714-5.807 8.921-7.845 1.016-.937 2.042-3.138-2.207-.469l-11.977 7.453s-1.358.784-3.907.076C4.062 15.166 1.09 14.23 1.09 14.23s-2.041-1.177 1.44-2.43l19.8-7.529c1.959-.784 8.58-3.29 8.58-3.29s3.057-1.1 2.797 1.559z" fill="#B1B1B1"/></svg>