<svg width="1440" height="1020" viewBox="0 0 1440 1020" fill="none" xmlns="http://www.w3.org/2000/svg">
<path opacity="0.2" d="M-17.4531 846.596C56.7096 1087.68 279.63 1001.74 284.098 802.874C295.297 304.349 92.652 656.018 -45.817 282.785C-116.174 93.143 74.6143 -187.478 161.264 183.857C193.466 321.86 411.374 818.403 430 883.002C508.046 1153.69 891.081 1287.25 802.949 636.734C800.841 621.176 794.63 605.916 786.142 592.707C645.779 374.258 646.348 28.3363 917.501 152.999C1197 281.498 951.841 740.698 1054 915.997C1170.45 1115.81 1212.57 593.446 1220.88 467.555C1222.04 449.986 1227.37 433.151 1238.47 419.484C1278.29 370.46 1380.08 275.007 1398.5 552.5C1408.63 705.004 1372 879.997 1440 867.497" stroke="#4A4A4A" stroke-width="3" stroke-linecap="round" stroke-dasharray="10 10"/>
</svg>
