<svg width="108" height="35" fill="none" xmlns="http://www.w3.org/2000/svg"><g clip-path="url(#clip0_14_1274)"><path d="M30.106 24.85c0 2.807-.918 5.158-2.756 7.053-1.835 1.895-4.119 2.843-6.85 2.844h-8.048v-13.43h5.195v8.537h2.854c1.375 0 2.496-.458 3.361-1.373.868-.912 1.3-2.122 1.3-3.631s-.434-2.72-1.3-3.635c-.865-.914-1.985-1.37-3.361-1.37H9.598a9.502 9.502 0 01-4.4-1.008 9.386 9.386 0 01-2.449-1.834A9.657 9.657 0 010 10.339v-.766C.076 6.928.993 4.7 2.749 2.892 4.584.997 6.867.049 9.599.049h8.048V13.48h-5.195V4.94H9.598c-1.375 0-2.496.458-3.362 1.372-.867.914-1.3 2.125-1.3 3.633 0 1.51.433 2.722 1.3 3.634.866.914 1.986 1.372 3.362 1.373h10.903c2.731 0 5.014.947 6.85 2.84 1.837 1.895 2.755 4.247 2.755 7.057z" fill="#4A4A4A"/><path d="M48.782 0h-4.644l-4.92 14.926h4.132l.64-2.154h4.962l.64 2.154h4.11L48.782 0zm-3.813 9.489l1.491-5.075 1.512 5.075H44.97zM60.86 0h-6.07v9.91h3.918V3.688h2.152a3.335 3.335 0 012.535 1.034c.653.69.98 1.603.98 2.74 0 1.137-.327 2.05-.98 2.74a3.338 3.338 0 01-2.535 1.034h-6.07v3.69h6.07c2.059 0 3.78-.715 5.165-2.144 1.385-1.428 2.077-3.202 2.077-5.32 0-2.118-.692-3.891-2.077-5.32C64.641.714 62.92 0 60.86 0zm15.08 0h-6.07v3.689h6.07a3.334 3.334 0 012.536 1.034c.653.69.98 1.603.98 2.74 0 1.137-.327 2.05-.98 2.74a3.337 3.337 0 01-2.535 1.034H73.79v-6.22h-3.92v9.91h6.07c2.06 0 3.781-.715 5.166-2.144 1.385-1.428 2.077-3.202 2.077-5.32 0-2.118-.692-3.891-2.077-5.32C79.722.714 78 0 75.941 0z" fill="#E97522"/><path d="M45.011 19.754a5.264 5.264 0 013.792 1.471c1.023.981 1.534 2.232 1.534 3.753s-.511 2.772-1.534 3.753a5.268 5.268 0 01-3.791 1.471H43.03v4.478h-3.812V19.754h5.793zm0 6.823a1.442 1.442 0 001.076-.448 1.582 1.582 0 00.437-1.15 1.547 1.547 0 00-.437-1.142 1.462 1.462 0 00-1.076-.437h-1.98v3.177h1.98zm14.826-6.823h3.792V34.68h-3.792v-5.736h-4.196v5.736h-3.813V19.754h3.813v5.522h4.196v-5.522zM78.785 32.75a7.97 7.97 0 01-11.098 0 7.484 7.484 0 01-2.268-5.534 7.491 7.491 0 012.268-5.533 7.97 7.97 0 0111.098 0 7.487 7.487 0 012.269 5.534 7.492 7.492 0 01-2.269 5.533zm-8.424-2.623a4.248 4.248 0 007.14-1.595 4.26 4.26 0 00-1.993-5.043 4.246 4.246 0 00-5.322 1.015 4.257 4.257 0 00-.976 2.712 3.928 3.928 0 001.15 2.911zM92.3 19.754v3.689h-3.685V34.68h-3.813V23.443h-3.685v-3.69H92.3zm13.432 12.996a7.972 7.972 0 01-11.098 0 7.484 7.484 0 01-2.269-5.534 7.491 7.491 0 012.269-5.533 7.97 7.97 0 0111.097 0A7.48 7.48 0 01108 27.217a7.5 7.5 0 01-2.268 5.533zm-8.425-2.623a4.248 4.248 0 007.141-1.595 4.257 4.257 0 00-1.994-5.043 4.244 4.244 0 00-5.322 1.015 4.257 4.257 0 00-.976 2.712 3.926 3.926 0 001.15 2.911z" fill="#B1B1B1"/></g><defs><clipPath id="clip0_14_1274"><path fill="#fff" d="M0 0h108v35H0z"/></clipPath></defs></svg>