<svg width="113" height="35" fill="none" xmlns="http://www.w3.org/2000/svg"><g clip-path="url(#clip0_14_1541)"><path d="M31.5 24.85c0 2.806-.961 5.157-2.884 7.052-1.92 1.895-4.309 2.843-7.166 2.844h-8.422v-13.43h5.436v8.537h2.986c1.439 0 2.611-.458 3.517-1.373.908-.912 1.36-2.122 1.36-3.63 0-1.51-.454-2.721-1.36-3.636-.905-.914-2.078-1.37-3.517-1.37H10.042a10.322 10.322 0 01-4.604-1.008 9.778 9.778 0 01-2.562-1.834C1.054 15.22.023 12.832 0 10.338v-.766C.08 6.927 1.039 4.7 2.876 2.892 4.796.995 7.186.048 10.042.047h8.422V13.48h-5.436V4.94h-2.986c-1.438 0-2.61.458-3.517 1.372-.907.914-1.36 2.125-1.36 3.633 0 1.51.453 2.722 1.36 3.634.905.914 2.078 1.372 3.517 1.373H21.45c2.858 0 5.247.947 7.166 2.84 1.923 1.894 2.884 4.247 2.884 7.057z" fill="#fff"/><path d="M51.041 0h-4.858l-5.149 14.926h4.324l.669-2.154h5.192l.669 2.154h4.302L51.04 0zm-3.99 9.489l1.56-5.075 1.583 5.075h-3.142zM63.677 0h-6.352v9.91h4.101V3.688h2.251c.493-.017.985.067 1.442.245.457.178.87.447 1.21.79.683.689 1.025 1.602 1.025 2.74 0 1.136-.341 2.05-1.025 2.739a3.51 3.51 0 01-1.21.79 3.63 3.63 0 01-1.442.244h-6.352v3.69h6.352c2.154 0 3.956-.715 5.405-2.144 1.448-1.428 2.173-3.202 2.172-5.32 0-2.118-.724-3.891-2.172-5.32C67.632.714 65.832 0 63.677 0zm15.779 0h-6.352v3.689h6.352a3.63 3.63 0 011.442.245c.458.178.87.447 1.21.79.684.689 1.025 1.602 1.026 2.74 0 1.136-.342 2.05-1.025 2.739a3.52 3.52 0 01-1.21.79 3.632 3.632 0 01-1.443.244h-2.25v-6.22h-4.102v9.91h6.352c2.154 0 3.956-.715 5.405-2.144 1.449-1.428 2.173-3.202 2.173-5.32 0-2.118-.725-3.891-2.173-5.32C83.412.714 81.61 0 79.456 0z" fill="#E97522"/><path d="M47.096 19.754a5.736 5.736 0 012.138.354 5.552 5.552 0 011.83 1.117c1.07.981 1.604 2.232 1.604 3.753s-.535 2.772-1.605 3.753a5.551 5.551 0 01-1.829 1.116 5.735 5.735 0 01-2.138.355h-2.073v4.478h-3.989V19.754h6.062zm0 6.823c.21.004.419-.033.612-.11.194-.077.369-.192.514-.338a1.57 1.57 0 00.35-.53c.079-.199.115-.41.107-.62.009-.21-.027-.42-.106-.616a1.538 1.538 0 00-1.477-.963h-2.073v3.177h2.073zm15.512-6.823h3.967V34.68h-3.967v-5.736h-4.391v5.736h-3.99V19.754h3.99v5.522h4.39v-5.522zm19.825 12.997c-1.557 1.443-3.64 2.25-5.806 2.25-2.167 0-4.25-.807-5.806-2.25a7.477 7.477 0 01-1.79-2.53 7.202 7.202 0 01-.584-3.003 7.201 7.201 0 01.584-3.004 7.477 7.477 0 011.79-2.53c1.556-1.443 3.639-2.25 5.806-2.25 2.167 0 4.249.807 5.806 2.25a7.48 7.48 0 011.789 2.53c.408.952.607 1.975.584 3.004a7.2 7.2 0 01-.584 3.003 7.48 7.48 0 01-1.79 2.53zm-8.815-2.623a4.52 4.52 0 002.684 1.31 4.609 4.609 0 002.94-.628 4.286 4.286 0 001.847-2.277c.32-.941.287-1.96-.093-2.88a4.321 4.321 0 00-1.992-2.163 4.622 4.622 0 00-2.976-.451 4.49 4.49 0 00-2.593 1.466 4.144 4.144 0 00-1.02 2.713 3.775 3.775 0 00.284 1.575c.208.5.52.955.919 1.335zm22.956-10.374v3.689h-3.856V34.68h-3.99V23.443h-3.855v-3.69h11.701zm14.053 12.997c-1.557 1.443-3.639 2.25-5.806 2.25-2.167 0-4.249-.807-5.806-2.25a7.477 7.477 0 01-1.79-2.53 7.2 7.2 0 01-.584-3.003 7.2 7.2 0 01.584-3.004 7.477 7.477 0 011.79-2.53c1.557-1.443 3.639-2.25 5.806-2.25 2.167 0 4.249.807 5.806 2.25a7.472 7.472 0 011.789 2.53 7.18 7.18 0 01.584 3.004 7.18 7.18 0 01-.584 3.003 7.47 7.47 0 01-1.789 2.53zm-8.815-2.623a4.519 4.519 0 002.684 1.31 4.609 4.609 0 002.94-.628 4.287 4.287 0 001.848-2.277 4.08 4.08 0 00-.094-2.88 4.321 4.321 0 00-1.992-2.163 4.623 4.623 0 00-2.976-.451 4.492 4.492 0 00-2.593 1.466 4.142 4.142 0 00-1.021 2.713 3.788 3.788 0 00.286 1.575c.207.5.519.955.918 1.335z" fill="#B1B1B1"/></g><defs><clipPath id="clip0_14_1541"><path fill="#fff" d="M0 0h113v35H0z"/></clipPath></defs></svg>