<svg width="32" height="29" fill="none" xmlns="http://www.w3.org/2000/svg"><path fill-rule="evenodd" clip-rule="evenodd" d="M27.807 5.185a12.06 12.06 0 003.687-1.084 13.757 13.757 0 01-3.209 3.563c.01.292.02.593.02.894 0 9.084-6.466 19.563-18.288 19.563-3.631 0-7.009-1.134-9.852-3.091.507.06 1.013.09 1.53.09 3.011 0 5.78-1.104 7.984-2.941-2.815-.06-5.188-2.048-6.005-4.778.394.08.798.12 1.21.12.592 0 1.155-.08 1.699-.24-2.937-.633-5.16-3.413-5.16-6.746v-.09a6.162 6.162 0 002.908.863c-1.726-1.235-2.862-3.342-2.862-5.721 0-1.255.32-2.44.873-3.453C5.513 6.299 10.252 9.03 15.59 9.32a7.133 7.133 0 01-.168-1.566c0-3.795 2.88-6.876 6.427-6.876 1.848 0 3.518.833 4.691 2.168a12.512 12.512 0 004.082-1.666c-.47 1.606-1.483 2.95-2.815 3.804z" fill="#B1B1B1"/></svg>