<svg width="24" height="24" viewBox="0 0 24 24" fill="none" xmlns="http://www.w3.org/2000/svg">
<path d="M23.7599 3.71906L10.0799 17.5191L4.91992 12.3591L6.71992 10.6791L10.0799 14.0391L22.0799 2.03906L23.7599 3.71906Z" fill="#E97522"/>
<path d="M23.04 7.92L21.36 9.6C21.6 10.32 21.72 11.16 21.72 12C21.72 17.52 17.28 21.84 11.88 21.84C6.36 21.84 2.04 17.4 2.04 12C2.04 6.48 6.48 2.16 11.88 2.16C13.8 2.16 15.72 2.76 17.28 3.72L18.84 2.16C16.92 0.840001 14.52 0 12 0C5.4 0 0 5.4 0 12C0 18.6 5.4 24 12 24C18.6 24 24 18.6 24 12C23.76 10.56 23.52 9.12 23.04 7.92Z" fill="#E97522"/>
</svg>
