<svg width="28" height="25" viewBox="0 0 28 25" fill="none" xmlns="http://www.w3.org/2000/svg">
<path d="M9.99935 0.666992L7.55935 3.33366H3.33268C1.86602 3.33366 0.666016 4.53366 0.666016 6.00033V22.0003C0.666016 23.467 1.86602 24.667 3.33268 24.667H24.666C26.1327 24.667 27.3327 23.467 27.3327 22.0003V6.00033C27.3327 4.53366 26.1327 3.33366 24.666 3.33366H20.4393L17.9993 0.666992H9.99935ZM13.9993 20.667C10.3193 20.667 7.33268 17.6803 7.33268 14.0003C7.33268 10.3203 10.3193 7.33366 13.9993 7.33366C17.6793 7.33366 20.666 10.3203 20.666 14.0003C20.666 17.6803 17.6793 20.667 13.9993 20.667Z" fill="#BBBDC1"/>
</svg>
