<?xml version="1.0" encoding="utf-8"?><svg viewBox="0 0 34 31" xmlns="http://www.w3.org/2000/svg" xmlns:xlink="http://www.w3.org/1999/xlink"><style>:root>svg{display:none}:root>svg:target{display:block}</style><svg viewBox="0 0 23 31" id="facebook" xmlns="http://www.w3.org/2000/svg"><path fill-rule="evenodd" clip-rule="evenodd" d="M14.784 8.169V11.8h7.075l-1.13 5.6h-5.945V31H6.812V17.4H.329v-5.6h6.483V7.535C6.812 2.678 10.618 0 16.454 0c2.793 0 5.71.382 5.71.382v4.762h-3.223c-3.169 0-4.157 1.492-4.157 3.025z"/></svg><svg viewBox="0 0 32 31" id="instagram" xmlns="http://www.w3.org/2000/svg"><path fill-rule="evenodd" clip-rule="evenodd" d="M30.503 5.345a7.652 7.652 0 00-1.81-2.745A7.747 7.747 0 0025.92.81c-.992-.383-2.13-.637-3.802-.72C20.445.019 19.913 0 15.66 0c-4.252 0-4.785.018-6.457.09-1.662.083-2.801.337-3.802.728A7.746 7.746 0 002.627 2.61a7.651 7.651 0 00-1.81 2.746C.432 6.336.175 7.464.092 9.109.018 10.764 0 11.291 0 15.5c0 4.21.018 4.736.092 6.39.083 1.655.34 2.783.735 3.764A7.651 7.651 0 002.636 28.4a7.747 7.747 0 002.774 1.79c.992.383 2.13.646 3.802.72 1.672.072 2.205.09 6.457.09 4.253 0 4.785-.018 6.457-.09 1.662-.074 2.801-.337 3.803-.72a7.747 7.747 0 002.773-1.79 7.653 7.653 0 001.81-2.745c.386-.982.652-2.11.725-3.764.074-1.655.092-2.182.092-6.391 0-4.21-.018-4.736-.092-6.39-.082-1.646-.349-2.774-.734-3.765zM15.66 23.464c-4.445 0-8.046-3.564-8.046-7.964s3.6-7.964 8.046-7.964c4.445 0 8.046 3.564 8.046 7.964s-3.6 7.964-8.046 7.964zM24.027 9.09a1.876 1.876 0 01-1.883-1.864c0-1.027.846-1.863 1.883-1.863 1.038 0 1.883.836 1.883 1.863a1.882 1.882 0 01-1.883 1.864zm-3.14 6.409c0 2.855-2.334 5.164-5.218 5.164s-5.217-2.31-5.217-5.164c0-2.854 2.333-5.164 5.217-5.164 2.875 0 5.217 2.31 5.217 5.164z"/></svg><svg viewBox="0 0 34 27" id="telegram" xmlns="http://www.w3.org/2000/svg"><path fill-rule="evenodd" clip-rule="evenodd" d="M33.706 2.539c-.082 1.1-.766 4.946-1.44 9.097l-2.124 12.322s-.166 1.808-1.616 2.114c-1.44.316-3.824-1.1-4.248-1.416-.342-.239-6.373-3.769-8.58-5.49-.59-.47-1.274-1.417.083-2.507 3.057-2.593 6.714-5.807 8.921-7.845 1.016-.937 2.042-3.138-2.207-.469l-11.977 7.453s-1.358.784-3.907.076C4.062 15.166 1.09 14.23 1.09 14.23s-2.041-1.177 1.44-2.43l19.8-7.529c1.959-.784 8.58-3.29 8.58-3.29s3.057-1.1 2.797 1.559z"/></svg><svg viewBox="0 0 32 29" id="twitter" xmlns="http://www.w3.org/2000/svg"><path fill-rule="evenodd" clip-rule="evenodd" d="M27.807 5.185a12.06 12.06 0 003.687-1.084 13.757 13.757 0 01-3.209 3.563c.01.292.02.593.02.894 0 9.084-6.466 19.563-18.288 19.563-3.631 0-7.009-1.134-9.852-3.091.507.06 1.013.09 1.53.09 3.011 0 5.78-1.104 7.984-2.941-2.815-.06-5.188-2.048-6.005-4.778.394.08.798.12 1.21.12.592 0 1.155-.08 1.699-.24-2.937-.633-5.16-3.413-5.16-6.746v-.09a6.162 6.162 0 002.908.863c-1.726-1.235-2.862-3.342-2.862-5.721 0-1.255.32-2.44.873-3.453C5.513 6.299 10.252 9.03 15.59 9.32a7.133 7.133 0 01-.168-1.566c0-3.795 2.88-6.876 6.427-6.876 1.848 0 3.518.833 4.691 2.168a12.512 12.512 0 004.082-1.666c-.47 1.606-1.483 2.95-2.815 3.804z"/></svg></svg>